<svg width="45" height="51" viewBox="0 0 45 51" fill="none" xmlns="http://www.w3.org/2000/svg">
<g style="mix-blend-mode:luminosity" clip-path="url(#clip0_502_33118)">
<path d="M41.2251 3.625H3.71533C1.99658 3.625 0.600098 5.04102 0.600098 6.7793V44.2207C0.600098 45.959 1.99658 47.375 3.71533 47.375H41.2251C42.9438 47.375 44.3501 45.959 44.3501 44.2207V6.7793C44.3501 5.04102 42.9438 3.625 41.2251 3.625ZM13.8228 41.125H7.33838V20.2461H13.8325V41.125H13.8228ZM10.5806 17.3945C8.50049 17.3945 6.8208 15.7051 6.8208 13.6348C6.8208 11.5645 8.50049 9.875 10.5806 9.875C12.6509 9.875 14.3403 11.5645 14.3403 13.6348C14.3403 15.7148 12.6606 17.3945 10.5806 17.3945ZM38.1294 41.125H31.645V30.9688C31.645 28.5469 31.5962 25.4316 28.2759 25.4316C24.897 25.4316 24.3794 28.0684 24.3794 30.793V41.125H17.895V20.2461H24.1157V23.0977H24.2036C25.0728 21.457 27.1919 19.7285 30.3462 19.7285C36.9087 19.7285 38.1294 24.0547 38.1294 29.6797V41.125Z" fill="#FF7857"/>
</g>
<defs>
<clipPath id="clip0_502_33118">
<rect width="43.75" height="50" fill="white" transform="translate(0.600098 0.5)"/>
</clipPath>
</defs>
</svg>
