<svg width="51" height="51" viewBox="0 0 51 51" fill="none" xmlns="http://www.w3.org/2000/svg">
<g clip-path="url(#clip0_502_31691)">
<g style="mix-blend-mode:overlay">
<path d="M16.6035 2.90259C15.8516 1.08619 13.8691 0.119389 11.9746 0.636968L3.38086 2.98072C1.68164 3.44947 0.5 4.99244 0.5 6.75025C0.5 30.9104 20.0898 50.5002 44.25 50.5002C46.0078 50.5002 47.5508 49.3186 48.0195 47.6194L50.3633 39.0256C50.8809 37.1311 49.9141 35.1487 48.0977 34.3967L38.7227 30.4905C37.1309 29.8264 35.2852 30.2854 34.2012 31.6233L30.2559 36.4377C23.3809 33.1858 17.8145 27.6194 14.5625 20.7444L19.377 16.8088C20.7148 15.7151 21.1738 13.8792 20.5098 12.2874L16.6035 2.91236V2.90259Z" fill="#021C30"/>
</g>
</g>
<defs>
<clipPath id="clip0_502_31691">
<rect width="50" height="50" fill="white" transform="translate(0.5 0.5)"/>
</clipPath>
</defs>
</svg>
