<svg width="20" height="19" viewBox="0 0 20 19" fill="none" xmlns="http://www.w3.org/2000/svg">
<g clip-path="url(#clip0_616_34007)">
<path d="M11.0035 1.13281C10.8195 0.746094 10.4306 0.5 10.0035 0.5C9.57645 0.5 9.19103 0.746094 9.00353 1.13281L6.77089 5.78398L1.78478 6.5293C1.36812 6.59258 1.02089 6.88789 0.892422 7.29219C0.76395 7.69648 0.868116 8.14297 1.16673 8.4418L4.78478 12.0664L3.93062 17.1887C3.86117 17.6105 4.03478 18.0395 4.37853 18.2891C4.72228 18.5387 5.17714 18.5703 5.55214 18.3699L10.007 15.9617L14.4619 18.3699C14.8369 18.5703 15.2917 18.5422 15.6355 18.2891C15.9792 18.0359 16.1528 17.6105 16.0834 17.1887L15.2258 12.0664L18.8438 8.4418C19.1424 8.14297 19.2501 7.69648 19.1181 7.29219C18.9862 6.88789 18.6424 6.59258 18.2258 6.5293L13.2362 5.78398L11.0035 1.13281Z" fill="#FF7857"/>
</g>
<defs>
<clipPath id="clip0_616_34007">
<rect width="20" height="18" fill="white" transform="translate(0 0.5)"/>
</clipPath>
</defs>
</svg>
