<svg width="44" height="51" viewBox="0 0 44 51" fill="none" xmlns="http://www.w3.org/2000/svg">
<g clip-path="url(#clip0_502_33106)">
<path d="M40.8252 3.625H3.31543C1.59668 3.625 0.200195 5.04102 0.200195 6.7793V44.2207C0.200195 45.959 1.59668 47.375 3.31543 47.375H40.8252C42.5439 47.375 43.9502 45.959 43.9502 44.2207V6.7793C43.9502 5.04102 42.5439 3.625 40.8252 3.625ZM13.4229 41.125H6.93848V20.2461H13.4326V41.125H13.4229ZM10.1807 17.3945C8.10059 17.3945 6.4209 15.7051 6.4209 13.6348C6.4209 11.5645 8.10059 9.875 10.1807 9.875C12.251 9.875 13.9404 11.5645 13.9404 13.6348C13.9404 15.7148 12.2607 17.3945 10.1807 17.3945ZM37.7295 41.125H31.2451V30.9688C31.2451 28.5469 31.1963 25.4316 27.876 25.4316C24.4971 25.4316 23.9795 28.0684 23.9795 30.793V41.125H17.4951V20.2461H23.7158V23.0977H23.8037C24.6729 21.457 26.792 19.7285 29.9463 19.7285C36.5088 19.7285 37.7295 24.0547 37.7295 29.6797V41.125Z" fill="#021C30"/>
</g>
<defs>
<clipPath id="clip0_502_33106">
<rect width="43.75" height="50" fill="white" transform="translate(0.200195 0.5)"/>
</clipPath>
</defs>
</svg>
