<svg width="45" height="51" viewBox="0 0 45 51" fill="none" xmlns="http://www.w3.org/2000/svg">
<g clip-path="url(#clip0_814_8551)">
<g style="mix-blend-mode:overlay">
<path d="M41.4248 3.625H3.91504C2.19629 3.625 0.799805 5.04102 0.799805 6.7793V44.2207C0.799805 45.959 2.19629 47.375 3.91504 47.375H41.4248C43.1436 47.375 44.5498 45.959 44.5498 44.2207V6.7793C44.5498 5.04102 43.1436 3.625 41.4248 3.625ZM14.0225 41.125H7.53809V20.2461H14.0322V41.125H14.0225ZM10.7803 17.3945C8.7002 17.3945 7.02051 15.7051 7.02051 13.6348C7.02051 11.5645 8.7002 9.875 10.7803 9.875C12.8506 9.875 14.54 11.5645 14.54 13.6348C14.54 15.7148 12.8604 17.3945 10.7803 17.3945ZM38.3291 41.125H31.8447V30.9688C31.8447 28.5469 31.7959 25.4316 28.4756 25.4316C25.0967 25.4316 24.5791 28.0684 24.5791 30.793V41.125H18.0947V20.2461H24.3154V23.0977H24.4033C25.2725 21.457 27.3916 19.7285 30.5459 19.7285C37.1084 19.7285 38.3291 24.0547 38.3291 29.6797V41.125Z" fill="#021C30"/>
</g>
</g>
<defs>
<clipPath id="clip0_814_8551">
<rect width="43.75" height="50" fill="white" transform="translate(0.799805 0.5)"/>
</clipPath>
</defs>
</svg>
