<svg width="51" height="51" viewBox="0 0 51 51" fill="none" xmlns="http://www.w3.org/2000/svg">
<g clip-path="url(#clip0_502_31696)">
<g style="mix-blend-mode:overlay">
<path d="M7.2002 20.8223L25.9502 6.93555L44.7002 20.8223V25.4512L29.2217 36.9258C28.2744 37.6289 27.1318 38 25.9502 38C24.7686 38 23.626 37.6191 22.6787 36.9258L7.2002 25.4512V20.8223ZM25.9502 0.5C24.7686 0.5 23.626 0.880859 22.6787 1.57422L3.47949 15.8027C1.8877 16.9844 0.950195 18.8398 0.950195 20.8223V44.25C0.950195 47.6973 3.75293 50.5 7.2002 50.5H44.7002C48.1475 50.5 50.9502 47.6973 50.9502 44.25V20.8223C50.9502 18.8398 50.0127 16.9746 48.4209 15.8027L29.2217 1.57422C28.2744 0.880859 27.1318 0.5 25.9502 0.5Z" fill="#021C30"/>
</g>
</g>
<defs>
<clipPath id="clip0_502_31696">
<rect width="50" height="50" fill="white" transform="translate(0.950195 0.5)"/>
</clipPath>
</defs>
</svg>
