<svg width="51" height="51" viewBox="0 0 51 51" fill="none" xmlns="http://www.w3.org/2000/svg">
<g clip-path="url(#clip0_502_31695)">
<g style="mix-blend-mode:overlay">
<path d="M5.2373 6.75C2.64941 6.75 0.549805 8.84961 0.549805 11.4375C0.549805 12.9121 1.24316 14.2988 2.4248 15.1875L23.6748 31.125C24.7881 31.9551 26.3115 31.9551 27.4248 31.125L48.6748 15.1875C49.8564 14.2988 50.5498 12.9121 50.5498 11.4375C50.5498 8.84961 48.4502 6.75 45.8623 6.75H5.2373ZM0.549805 17.6875V38C0.549805 41.4473 3.35254 44.25 6.7998 44.25H44.2998C47.7471 44.25 50.5498 41.4473 50.5498 38V17.6875L29.2998 33.625C27.0732 35.2949 24.0264 35.2949 21.7998 33.625L0.549805 17.6875Z" fill="#021C30"/>
</g>
</g>
<defs>
<clipPath id="clip0_502_31695">
<rect width="50" height="50" fill="white" transform="translate(0.549805 0.5)"/>
</clipPath>
</defs>
</svg>
