<svg width="51" height="51" viewBox="0 0 51 51" fill="none" xmlns="http://www.w3.org/2000/svg">
<g clip-path="url(#clip0_502_31693)">
<g style="mix-blend-mode:overlay">
<path d="M27.5439 0.500249C40.0537 0.500249 50.2002 10.6467 50.2002 23.1565C50.2002 24.4553 49.1553 25.5002 47.8564 25.5002C46.5576 25.5002 45.5127 24.4553 45.5127 23.1565C45.5127 13.2346 37.4658 5.18775 27.5439 5.18775C26.2451 5.18775 25.2002 4.14283 25.2002 2.844C25.2002 1.54517 26.2451 0.500249 27.5439 0.500249ZM28.3252 19.2502C29.154 19.2502 29.9489 19.5795 30.5349 20.1655C31.121 20.7516 31.4502 21.5464 31.4502 22.3752C31.4502 23.2041 31.121 23.9989 30.5349 24.585C29.9489 25.171 29.154 25.5002 28.3252 25.5002C27.4964 25.5002 26.7015 25.171 26.1155 24.585C25.5294 23.9989 25.2002 23.2041 25.2002 22.3752C25.2002 21.5464 25.5294 20.7516 26.1155 20.1655C26.7015 19.5795 27.4964 19.2502 28.3252 19.2502ZM25.2002 12.219C25.2002 10.9202 26.2451 9.87525 27.5439 9.87525C34.8779 9.87525 40.8252 15.8225 40.8252 23.1565C40.8252 24.4553 39.7803 25.5002 38.4814 25.5002C37.1826 25.5002 36.1377 24.4553 36.1377 23.1565C36.1377 18.4104 32.29 14.5627 27.5439 14.5627C26.2451 14.5627 25.2002 13.5178 25.2002 12.219ZM11.6748 0.636968C13.5693 0.119389 15.5518 1.08619 16.3037 2.90259L20.21 12.2776C20.874 13.8694 20.415 15.7151 19.0771 16.7991L14.2627 20.7444C17.5146 27.6194 23.0811 33.1858 29.9561 36.4377L33.8916 31.6233C34.9854 30.2854 36.8213 29.8264 38.4131 30.4905L47.7881 34.3967C49.6045 35.1487 50.5713 37.1311 50.0537 39.0256L47.71 47.6194C47.251 49.3186 45.708 50.5002 43.9502 50.5002C19.79 50.5002 0.200195 30.9104 0.200195 6.75025C0.200195 4.99244 1.38184 3.44947 3.08105 2.98072L11.6748 0.636968Z" fill="#021C30"/>
</g>
</g>
<defs>
<clipPath id="clip0_502_31693">
<rect width="50" height="50" fill="white" transform="translate(0.200195 0.5)"/>
</clipPath>
</defs>
</svg>
