<svg width="21" height="19" viewBox="0 0 21 19" fill="none" xmlns="http://www.w3.org/2000/svg">
<g clip-path="url(#clip0_616_34012)">
<path d="M10.6463 0.5C10.9658 0.5 11.2574 0.680556 11.3963 0.96875L13.7783 5.875L19.0977 6.65972C19.4102 6.70486 19.6706 6.92361 19.7678 7.22569C19.8651 7.52778 19.7852 7.85417 19.563 8.07639L15.7053 11.9028L16.6151 17.3056C16.6671 17.6181 16.5387 17.934 16.2783 18.1215C16.0178 18.309 15.6776 18.3299 15.3998 18.1806L10.6428 15.6389L5.89284 18.1771C5.61159 18.3264 5.27131 18.3056 5.01436 18.1181C4.75742 17.9306 4.62548 17.6146 4.67756 17.3021L5.58728 11.8993L1.72964 8.07639C1.50395 7.85417 1.42756 7.52431 1.52478 7.22569C1.622 6.92708 1.88242 6.70833 2.19492 6.65972L7.51436 5.875L9.89631 0.96875C10.0387 0.680556 10.3269 0.5 10.6463 0.5ZM10.6463 3.24306L8.82339 7C8.70186 7.24653 8.46923 7.42014 8.19492 7.46181L4.08728 8.06597L7.06992 11.0208C7.26089 11.2118 7.35117 11.4826 7.30603 11.75L6.60117 15.9063L10.2539 13.9549C10.5005 13.8229 10.7956 13.8229 11.0387 13.9549L14.6914 15.9063L13.9901 11.7535C13.9449 11.4861 14.0317 11.2153 14.2262 11.0243L17.2088 8.06944L13.1012 7.46181C12.8303 7.42014 12.5942 7.25 12.4727 7L10.6463 3.24306Z" fill="#FF7857"/>
</g>
<defs>
<clipPath id="clip0_616_34012">
<rect width="20" height="17.7778" fill="white" transform="translate(0.649902 0.5)"/>
</clipPath>
</defs>
</svg>
